# xmcd
#
# Track frame offsets:
#	150
#	15672
#	34426
#	48651
#	65789
#	83536
#	99331
#	119211
#	133941
#	150893
#	168050
#	180829
#	195276
#	211463
#	229390
#	247185
#	264202
#	285399
#	303678
#	318132
#
# Disc length: 4440 seconds
#
# Revision: 0
# Processed by: cddbd v1.4PL0 Copyright (c) Steve Scherf et al.
# Submitted via: EasyCDDAExtractor 5.0.0.0
#
DISCID=11115614
DTITLE=Dyango - Existos de Siempre
DYEAR=2000
DGENRE=Pop
TTITLE0=Cuando quieras, donde quieras
TTITLE1=Odiame
TTITLE2=Alma, corazón y vida
TTITLE3=El primer beso
TTITLE4=Poder (decirte que te amo)
TTITLE5=Querer y perder
TTITLE6=Si yo fuera él
TTITLE7=Corazón mágico
TTITLE8=A donde vas amor
TTITLE9=Hoy he empezado a quererte otra vez
TTITLE10=Igual que a mi
TTITLE11=Serás
TTITLE12=Hay algo en ella
TTITLE13=Esa mujer
TTITLE14=Por volverte a ver
TTITLE15=Yo mañana
TTITLE16=Adios, adios amor
TTITLE17=El mundo
TTITLE18=La radio
TTITLE19=Si la vieras con mis ojos
EXTD=
EXTT0=
EXTT1=
EXTT2=
EXTT3=
EXTT4=
EXTT5=
EXTT6=
EXTT7=
EXTT8=
EXTT9=
EXTT10=
EXTT11=
EXTT12=
EXTT13=
EXTT14=
EXTT15=
EXTT16=
EXTT17=
EXTT18=
EXTT19=
PLAYORDER=
